<svg xmlns="http://www.w3.org/2000/svg" viewBox="0 0 900 400">
  <defs>
    <linearGradient id="flyBg" x1="0%" y1="0%" x2="100%" y2="100%">
      <stop offset="0%" style="stop-color:#1a1a2e;stop-opacity:1" />
      <stop offset="100%" style="stop-color:#16213e;stop-opacity:1" />
    </linearGradient>
    <filter id="flyShadow" x="-20%" y="-20%" width="140%" height="140%">
      <feDropShadow dx="2" dy="2" stdDeviation="3" flood-color="#000" flood-opacity="0.3"/>
    </filter>
    <marker id="flyArrow" markerWidth="10" markerHeight="7" refX="9" refY="3.5" orient="auto">
      <polygon points="0 0, 10 3.5, 0 7" fill="#8b5cf6"/>
    </marker>
  </defs>

  <!-- Background -->
  <rect width="900" height="400" fill="url(#flyBg)" rx="12"/>

  <!-- Title -->
  <text x="450" y="35" text-anchor="middle" fill="#8b5cf6" font-family="monospace" font-size="18" font-weight="bold">Fly.io Global Edge Distribution</text>

  <!-- Central EC2 POP -->
  <rect x="350" y="60" width="200" height="90" rx="10" fill="#f97316" filter="url(#flyShadow)"/>
  <text x="450" y="90" text-anchor="middle" fill="white" font-family="monospace" font-size="14" font-weight="bold">EC2 Central POP</text>
  <text x="450" y="110" text-anchor="middle" fill="#fed7aa" font-family="monospace" font-size="11">54.171.48.207:51820</text>
  <text x="450" y="128" text-anchor="middle" fill="#fef3c7" font-family="monospace" font-size="10">Ireland (edgeProxy)</text>
  <text x="450" y="143" text-anchor="middle" fill="#fcd34d" font-family="monospace" font-size="9">WireGuard Hub</text>

  <!-- WireGuard Connection Lines -->
  <line x1="450" y1="150" x2="450" y2="180" stroke="#8b5cf6" stroke-width="2"/>
  <line x1="450" y1="180" x2="100" y2="180" stroke="#8b5cf6" stroke-width="2" stroke-dasharray="5,3"/>
  <line x1="450" y1="180" x2="800" y2="180" stroke="#8b5cf6" stroke-width="2" stroke-dasharray="5,3"/>

  <!-- Fly.io Label -->
  <rect x="380" y="170" width="140" height="24" rx="4" fill="#7c3aed"/>
  <text x="450" y="187" text-anchor="middle" fill="white" font-family="monospace" font-size="11" font-weight="bold">Fly.io Machines</text>

  <!-- South America - GRU -->
  <rect x="30" y="220" width="130" height="80" rx="8" fill="#22c55e" filter="url(#flyShadow)"/>
  <text x="95" y="245" text-anchor="middle" fill="white" font-family="monospace" font-size="12" font-weight="bold">GRU</text>
  <text x="95" y="263" text-anchor="middle" fill="#bbf7d0" font-family="monospace" font-size="10">Sao Paulo</text>
  <text x="95" y="280" text-anchor="middle" fill="#dcfce7" font-family="monospace" font-size="9">10.50.1.1</text>
  <text x="95" y="293" text-anchor="middle" fill="#86efac" font-family="monospace" font-size="8">South America</text>
  <line x1="100" y1="180" x2="95" y2="220" stroke="#8b5cf6" stroke-width="2"/>

  <!-- North America - IAD -->
  <rect x="170" y="220" width="100" height="70" rx="8" fill="#3b82f6" filter="url(#flyShadow)"/>
  <text x="220" y="245" text-anchor="middle" fill="white" font-family="monospace" font-size="11" font-weight="bold">IAD</text>
  <text x="220" y="262" text-anchor="middle" fill="#bfdbfe" font-family="monospace" font-size="9">Virginia</text>
  <text x="220" y="278" text-anchor="middle" fill="#93c5fd" font-family="monospace" font-size="8">10.50.2.1</text>
  <line x1="200" y1="180" x2="220" y2="220" stroke="#8b5cf6" stroke-width="2"/>

  <!-- North America - ORD -->
  <rect x="280" y="220" width="100" height="70" rx="8" fill="#3b82f6" filter="url(#flyShadow)"/>
  <text x="330" y="245" text-anchor="middle" fill="white" font-family="monospace" font-size="11" font-weight="bold">ORD</text>
  <text x="330" y="262" text-anchor="middle" fill="#bfdbfe" font-family="monospace" font-size="9">Chicago</text>
  <text x="330" y="278" text-anchor="middle" fill="#93c5fd" font-family="monospace" font-size="8">10.50.2.2</text>
  <line x1="300" y1="180" x2="330" y2="220" stroke="#8b5cf6" stroke-width="2"/>

  <!-- North America - LAX -->
  <rect x="390" y="220" width="100" height="70" rx="8" fill="#3b82f6" filter="url(#flyShadow)"/>
  <text x="440" y="245" text-anchor="middle" fill="white" font-family="monospace" font-size="11" font-weight="bold">LAX</text>
  <text x="440" y="262" text-anchor="middle" fill="#bfdbfe" font-family="monospace" font-size="9">Los Angeles</text>
  <text x="440" y="278" text-anchor="middle" fill="#93c5fd" font-family="monospace" font-size="8">10.50.2.3</text>
  <line x1="400" y1="180" x2="440" y2="220" stroke="#8b5cf6" stroke-width="2"/>

  <!-- Europe - LHR -->
  <rect x="170" y="310" width="90" height="65" rx="8" fill="#ec4899" filter="url(#flyShadow)"/>
  <text x="215" y="333" text-anchor="middle" fill="white" font-family="monospace" font-size="11" font-weight="bold">LHR</text>
  <text x="215" y="350" text-anchor="middle" fill="#fbcfe8" font-family="monospace" font-size="9">London</text>
  <text x="215" y="365" text-anchor="middle" fill="#f9a8d4" font-family="monospace" font-size="8">10.50.3.1</text>
  <line x1="220" y1="290" x2="215" y2="310" stroke="#8b5cf6" stroke-width="2"/>

  <!-- Europe - FRA -->
  <rect x="270" y="310" width="90" height="65" rx="8" fill="#ec4899" filter="url(#flyShadow)"/>
  <text x="315" y="333" text-anchor="middle" fill="white" font-family="monospace" font-size="11" font-weight="bold">FRA</text>
  <text x="315" y="350" text-anchor="middle" fill="#fbcfe8" font-family="monospace" font-size="9">Frankfurt</text>
  <text x="315" y="365" text-anchor="middle" fill="#f9a8d4" font-family="monospace" font-size="8">10.50.3.2</text>
  <line x1="330" y1="290" x2="315" y2="310" stroke="#8b5cf6" stroke-width="2"/>

  <!-- Europe - CDG -->
  <rect x="370" y="310" width="90" height="65" rx="8" fill="#ec4899" filter="url(#flyShadow)"/>
  <text x="415" y="333" text-anchor="middle" fill="white" font-family="monospace" font-size="11" font-weight="bold">CDG</text>
  <text x="415" y="350" text-anchor="middle" fill="#fbcfe8" font-family="monospace" font-size="9">Paris</text>
  <text x="415" y="365" text-anchor="middle" fill="#f9a8d4" font-family="monospace" font-size="8">10.50.3.3</text>
  <line x1="440" y1="290" x2="415" y2="310" stroke="#8b5cf6" stroke-width="2"/>

  <!-- Asia Pacific - NRT -->
  <rect x="510" y="220" width="100" height="70" rx="8" fill="#eab308" filter="url(#flyShadow)"/>
  <text x="560" y="245" text-anchor="middle" fill="white" font-family="monospace" font-size="11" font-weight="bold">NRT</text>
  <text x="560" y="262" text-anchor="middle" fill="#fef9c3" font-family="monospace" font-size="9">Tokyo</text>
  <text x="560" y="278" text-anchor="middle" fill="#fde047" font-family="monospace" font-size="8">10.50.4.1</text>
  <line x1="500" y1="180" x2="560" y2="220" stroke="#8b5cf6" stroke-width="2"/>

  <!-- Asia Pacific - SIN -->
  <rect x="620" y="220" width="100" height="70" rx="8" fill="#eab308" filter="url(#flyShadow)"/>
  <text x="670" y="245" text-anchor="middle" fill="white" font-family="monospace" font-size="11" font-weight="bold">SIN</text>
  <text x="670" y="262" text-anchor="middle" fill="#fef9c3" font-family="monospace" font-size="9">Singapore</text>
  <text x="670" y="278" text-anchor="middle" fill="#fde047" font-family="monospace" font-size="8">10.50.4.2</text>
  <line x1="600" y1="180" x2="670" y2="220" stroke="#8b5cf6" stroke-width="2"/>

  <!-- Asia Pacific - SYD -->
  <rect x="730" y="220" width="100" height="70" rx="8" fill="#eab308" filter="url(#flyShadow)"/>
  <text x="780" y="245" text-anchor="middle" fill="white" font-family="monospace" font-size="11" font-weight="bold">SYD</text>
  <text x="780" y="262" text-anchor="middle" fill="#fef9c3" font-family="monospace" font-size="9">Sydney</text>
  <text x="780" y="278" text-anchor="middle" fill="#fde047" font-family="monospace" font-size="8">10.50.4.3</text>
  <line x1="700" y1="180" x2="780" y2="220" stroke="#8b5cf6" stroke-width="2"/>

  <!-- Legend -->
  <rect x="500" y="310" width="370" height="70" rx="6" fill="#0f172a" opacity="0.7"/>
  <circle cx="530" cy="330" r="6" fill="#f97316"/>
  <text x="545" y="334" fill="#94a3b8" font-family="monospace" font-size="9">Central Hub (EC2)</text>
  <circle cx="660" cy="330" r="6" fill="#22c55e"/>
  <text x="675" y="334" fill="#94a3b8" font-family="monospace" font-size="9">South America</text>
  <circle cx="780" cy="330" r="6" fill="#3b82f6"/>
  <text x="795" y="334" fill="#94a3b8" font-family="monospace" font-size="9">N. America</text>
  <circle cx="530" cy="355" r="6" fill="#ec4899"/>
  <text x="545" y="359" fill="#94a3b8" font-family="monospace" font-size="9">Europe</text>
  <circle cx="630" cy="355" r="6" fill="#eab308"/>
  <text x="645" y="359" fill="#94a3b8" font-family="monospace" font-size="9">Asia Pacific</text>
  <line x1="730" y1="355" x2="770" y2="355" stroke="#8b5cf6" stroke-width="2" stroke-dasharray="5,3"/>
  <text x="780" y="359" fill="#94a3b8" font-family="monospace" font-size="9">WireGuard</text>
</svg>
